#!OML:ASF E:/inclinewalkrobotboard/Project1/Captureday1/Session1/subject1.ASF
:FULLY-SPECIFIED
:DEGREES
201
root 0 0 0 -7.4579579035602634 17.44224435646102 15.871112728431102
lowerback -2.00141371228026 -5.268646194575247 -8.92245836166925
upperback -6.8429323295989235 -6.586709750674432 5.210433200525754
thorax -6.27244137374942 -1.8707659376943881 10.545489294136331
lowerneck -6.141360562818454 -8.098725255367194 -6.128378878262088
upperneck 29.767285994385748 -10.219548064980795 0.9783107564485309
head 10.998699090292044 -5.2806863334500465 0.025176136386666492
rclavicle -9.402136593352137E-15 6.847395732993746E-15
rhumerus 150.53301454038697 10.7219928041171 -200.9379256632263
rradius 13.532830066709787
rwrist 86.79857220702957
rhand -16.572176652466833 8.994392560250853
rfingers 7.125020000000004
rthumb 9.607751153854126 -20.655389936819045
lclavicle 1.0171663951585447E-15 3.0695287271387473E-15
lhumerus 62.240353353499344 35.599774268438196 19.25816792686856
lradius 28.29756803650027
lwrist -25.879837882270845
lhand -19.683818930048098 19.112146182292463
lfingers 7.125019999999973
lthumb 6.6098887967470255 49.83099609994111
rfemur 156.16764442846917 -212.61692884822597 -182.45765075819054
rtibia 55.531142386878436
rfoot -78.61511182636049 -13.761385724760814
rtoes 52.303298246461615
lfemur -86.61333728365403 17.488615170229878 -63.17623756280649
ltibia 69.18018140091624
lfoot 5.632523829119535 35.3401382991744
ltoes -0.494840004932362
202
root 0 0 0 -8.051097248132344 16.837274724142187 16.264842969835293
lowerback -1.6979716409232992 -5.27799820693212 -9.043475696485993
upperback -6.689755593194713 -6.60123141983184 5.09196035937098
thorax -6.305282591946586 -1.861703696968094 10.484682902784265
lowerneck -6.24811022079134 -8.020721207294221 -6.040822781829047
upperneck 29.670977319134625 -10.11765165378242 0.9786073586051152
head 10.972212296866397 -5.229418791927294 0.024094586802168694
rclavicle -9.880132829403731E-15 7.037080677419218E-15
rhumerus 149.92570214226603 10.969166511381893 -199.9967001430953
rradius 14.2050574142537
rwrist 86.08358000476798
rhand -16.5169501240189 9.166229672513253
rfingers 7.125020000000002
rthumb 9.664941363913034 -20.449053916313357
lclavicle 1.1864295649847546E-15 3.080792873965497E-15
lhumerus 59.466025419085966 34.804375753776725 20.819105183953138
lradius 28.550591232275664
lwrist -25.448042823365192
lhand -20.18678907346805 18.790078920528487
lfingers 7.125019999999979
lthumb 6.128348875820141 49.534752567716666
rfemur 156.87950580611755 -213.46713682426696 -182.6389939505341
rtibia 57.77565640778273
rfoot -76.17496434248925 -14.848933629586982
rtoes 51.18807260204437
lfemur -86.24988136670615 16.83791070606969 -63.944871422008966
ltibia 68.05213875224982
lfoot 5.407697070813764 35.95993019506517
ltoes -0.686392707986677
203
root 0 0 0 -8.323275839601727 16.574028619505892 16.43399237738585
lowerback -1.5617708342303627 -5.288997515181871 -9.094377403213821
upperback -6.614512714972783 -6.61692874236195 5.044064988186918
thorax -6.311158130011543 -1.8636373421892618 10.462442113327576
lowerneck -6.298046729827704 -7.984115699280812 -5.999329741926608
upperneck 29.654569861647147 -10.070426120979173 0.9734437020781472
head 10.97155332107507 -5.205700113908197 0.02219326067046734
rclavicle -1.0253132988682883E-14 7.176057364764045E-15
rhumerus 149.65168849524122 11.128515229993646 -198.34841760641638
rradius 15.331856535627013
rwrist 84.79024437765693
rhand -16.440369872183766 9.337648256115243
rfingers 7.125019999999999
rthumb 9.743614993887746 -20.235844877079266
lclavicle 1.6589593080888513E-15 2.841363472237699E-15
lhumerus 57.26684870165835 33.62110837819756 22.452787285588293
lradius 29.572513181705514
lwrist -24.672733520822277
lhand -20.538303809689612 18.10971329482628
lfingers 7.125019999999987
lthumb 5.794360759554454 48.830897038600725
rfemur 157.92158988357966 -214.49105680715172 -182.92167042899646
rtibia 60.94384641626988
rfoot -71.14256050367888 -16.68183790224553
rtoes 50.201006186126804
lfemur -85.86393677689296 16.32505701045386 -64.56104267656585
ltibia 66.8419946452772
lfoot 4.907148848304914 36.594387667611144
ltoes -0.6475349504534105
204
root 0 0 0 -8.31752719718267 16.509932144937775 16.421597920198067
lowerback -1.592235715623091 -5.30201643779292 -9.08648649463224
upperback -6.622393832107121 -6.634299656129151 5.058584916782758
thorax -6.3008144354575455 -1.873650661048017 10.475236618787747
lowerneck -6.295397700974657 -7.98948330620302 -6.009689415874428
upperneck 29.676319137245283 -10.0810822920638 0.9908218157383617
head 10.981320736272208 -5.209885482264085 0.02815210671526147
rclavicle -1.0513114697572726E-14 7.221668392291039E-15
rhumerus 149.7794605207078 11.172832384907665 -197.0379264045453
rradius 16.24610479427829
rwrist 83.72870466537022
rhand -16.388730305692718 9.436181110114033
rfingers 7.1250199999999975
rthumb 9.796162330389507 -20.109555268719358
lclavicle 2.051808042249266E-15 2.6397115642317404E-15
lhumerus 57.113165507167366 32.65066830071707 23.094160905221155
lradius 30.941854087642163
lwrist -23.96275508738652
lhand -20.436926818839375 17.446470290801102
lfingers 7.125019999999992
lthumb 5.894158625642337 48.092261042155606
rfemur 158.739892871817 -215.18867612999372 -183.17248768331442
rtibia 63.208121713401866
rfoot -66.79585083098812 -18.075451424145967
rtoes 49.7937800681639
lfemur -85.72882774862791 16.169733990155954 -64.74957079364853
ltibia 66.30200290492255
lfoot 4.516712195523116 36.887660297772186
ltoes -0.49064746870909026
205
root 0 0 0 -8.21095118179209 16.47421858558425 16.34893428418237
lowerback -1.6896308344073137 -5.3168367318929395 -9.06072716364743
upperback -6.663045121782247 -6.654018745075032 5.094838179004544
thorax -6.2844113310562655 -1.8870650368042228 10.50196822040569
lowerneck -6.2748075156156755 -8.009143504458425 -6.039495980176445
upperneck 29.709348305711757 -10.112892585194055 1.0239180030499075
head 10.994080360649688 -5.223746407269049 0.03945819730092026
rclavicle -1.0752306301555427E-14 7.2035376813415E-15
rhumerus 150.14472525647187 11.190414951770201 -195.65876449359624
rradius 17.24581095487406
rwrist 82.54374221119852
rhand -16.336689343557286 9.516633612296424
rfingers 7.125019999999996
rthumb 9.84917722055919 -20.002072489145224
lclavicle 2.4423352454232785E-15 2.3907561440994113E-15
lhumerus 58.00338158700099 31.670119638533638 23.439226348849598
lradius 32.941995978682996
lwrist -23.13000155034171
lhand -19.96896244723648 16.58610551976079
lfingers 7.125019999999997
lthumb 6.346474104381137 47.10505234487546
rfemur 159.53894458197726 -215.77245411641388 -183.42161449591765
rtibia 65.43529660990825
rfoot -62.01594341696742 -19.63983492108438
rtoes 49.603335312216984
lfemur -85.65329679168515 16.10606482798288 -64.82371928226411
ltibia 65.92644304792995
lfoot 4.095297833050207 37.10363441186075
ltoes -0.2743706177872749
206
root 0 0 0 -7.993966458179564 16.454614625325274 16.20929396285233
lowerback -1.860742901809787 -5.333685784687255 -9.01521059307013
upperback -6.73877042472742 -6.676599905632846 5.154114592469325
thorax -6.260354101454474 -1.90459597695158 10.54319039561911
lowerneck -6.237495561097022 -8.043413051997511 -6.090534148331909
upperneck 29.753637529060153 -10.167007277685178 1.0762353365284798
head 11.010424069829849 -5.247567570124049 0.05735852166223954
rclavicle -1.0914431728357831E-14 7.141251012889115E-15
rhumerus 150.70131886268118 11.172480949953176 -194.22429772057305
rradius 18.321411031790447
rwrist 81.20924801372935
rhand -16.28300684143979 9.58136352820518
rfingers 7.125019999999994
rthumb 9.903704932129267 -19.910906632263323
lclavicle 2.8694676485902674E-15 2.173135410044298E-15
lhumerus 59.723371931156024 30.671610871417872 23.540361582538715
lradius 35.779228205846415
lwrist -22.17119617733089
lhand -19.00303317252183 15.485773886418468
lfingers 7.125019999999999
lthumb 7.27736855134259 45.812244003411855
rfemur 160.25701553197348 -216.18018147826126 -183.62501903041994
rtibia 67.40849757589734
rfoot -57.47869518161822 -21.18198668041233
rtoes 49.50951313209548
lfemur -85.64642778700573 16.10058743842412 -64.82353857008364
ltibia 65.67043050553741
lfoot 3.6101698286927686 37.283255498936974
ltoes -3.2816258608647786E-4
207
root 0 0 0 -7.414292864114003 16.45823447141836 15.840722145855215
lowerback -2.2733767550430306 -5.359489399013231 -8.901844190059817
upperback -6.924977662060426 -6.7122501197105375 5.289490693628595
thorax -6.205619275688477 -1.938728753976411 10.631715912232833
lowerneck -6.15315594136857 -8.122759663768784 -6.210964350352152
upperneck 29.839782391776133 -10.29176848133704 1.1948772520341073
head 11.042496264842605 -5.302373890938768 0.09834417134537854
rclavicle -1.0698005143899237E-14 7.016836390727491E-15
rhumerus 151.86669947533326 11.034430163488352 -192.19478679267866
rradius 19.95356977737589
rwrist 78.98340772254093
rhand -16.21844117766083 9.637430933399534
rfingers 7.125019999999991
rthumb 9.97007514919542 -19.82343226172162
lclavicle 3.547301546346114E-15 1.9358555192978963E-15
lhumerus 62.86566119746804 29.390456594801215 23.48071895160643
lradius 41.42252382040322
lwrist -20.55211499570445
lhand -16.575903224892144 13.458734359427522
lfingers 7.125020000000003
lthumb 9.61259027478329 43.38286451485199
rfemur 160.8847170200867 -216.31650646784055 -183.7353650411349
rtibia 69.37188684694945
rfoot -52.54572639079278 -23.09372657863301
rtoes 49.53003784523651
lfemur -85.7872284026752 16.179786370414778 -64.69457674748946
ltibia 65.45988688677912
lfoot 2.7131275712696414 37.52282221787094
ltoes 0.5358082191302813
